G04*
G04 #@! TF.GenerationSoftware,Altium Limited,Altium Designer,20.1.11 (218)*
G04*
G04 Layer_Color=65535*
%FSLAX25Y25*%
%MOIN*%
G70*
G04*
G04 #@! TF.SameCoordinates,36FDBAD9-5122-4A0A-A9A9-D65628025C9C*
G04*
G04*
G04 #@! TF.FilePolarity,Positive*
G04*
G01*
G75*
%ADD10C,0.00984*%
%ADD11C,0.00787*%
%ADD12C,0.00600*%
%ADD13C,0.00300*%
%ADD14C,0.01000*%
G36*
X594100Y170844D02*
Y169344D01*
X593100D01*
Y170844D01*
X594100D01*
D02*
G37*
G36*
X614834Y185673D02*
Y186673D01*
X616334D01*
Y185673D01*
X614834D01*
D02*
G37*
G36*
X620740Y144673D02*
Y143673D01*
X622240D01*
Y144673D01*
X620740D01*
D02*
G37*
G36*
X635100Y168876D02*
Y167376D01*
X636100D01*
Y168876D01*
X635100D01*
D02*
G37*
D10*
X581405Y191776D02*
G03*
X581405Y191776I-492J0D01*
G01*
D11*
X590756Y199256D02*
X593905D01*
Y195319D02*
Y199256D01*
X582094D02*
X585244D01*
X582094Y195319D02*
Y199256D01*
X655000Y125000D02*
Y135000D01*
X575000Y125000D02*
X655000D01*
X575000D02*
Y135000D01*
X655000D01*
X559000Y125000D02*
X569000D01*
X559000D02*
Y205000D01*
X569000D01*
Y125000D02*
Y205000D01*
X659000D02*
X669000D01*
Y125000D02*
Y205000D01*
X659000Y125000D02*
X669000D01*
X659000D02*
Y205000D01*
X573500Y217000D02*
Y227000D01*
X653500D01*
Y217000D02*
Y227000D01*
X573500Y217000D02*
X653500D01*
D12*
X599950Y179823D02*
X601913D01*
X629250Y177860D02*
Y179823D01*
X627287Y150523D02*
X629250D01*
X599950D02*
X601913D01*
X599950Y177860D02*
Y179823D01*
X627287D02*
X629250D01*
Y150523D02*
Y152487D01*
X599950Y150523D02*
Y152487D01*
D13*
X599624Y141923D02*
X602956Y145255D01*
Y141923D02*
X599624Y145255D01*
X601290Y141923D02*
Y145255D01*
X602956Y143589D02*
X599624D01*
D14*
X586001Y150001D02*
X590999D01*
X591999Y151001D01*
Y153000D01*
X590999Y154000D01*
X586001D01*
X591999Y155999D02*
Y157999D01*
Y156999D01*
X586001D01*
X587001Y155999D01*
X657002Y218501D02*
Y224499D01*
X660001D01*
X661000Y223499D01*
Y221500D01*
X660001Y220500D01*
X657002D01*
X659001D02*
X661000Y218501D01*
X663000Y224499D02*
X666998D01*
Y223499D01*
X663000Y219501D01*
Y218501D01*
X657002Y226501D02*
Y232499D01*
X660001D01*
X661000Y231499D01*
Y229500D01*
X660001Y228500D01*
X657002D01*
X659001D02*
X661000Y226501D01*
X666998Y232499D02*
X664999Y231499D01*
X663000Y229500D01*
Y227501D01*
X663999Y226501D01*
X665999D01*
X666998Y227501D01*
Y228500D01*
X665999Y229500D01*
X663000D01*
X657002Y234501D02*
Y240499D01*
X660001D01*
X661000Y239499D01*
Y237500D01*
X660001Y236500D01*
X657002D01*
X659001D02*
X661000Y234501D01*
X666998Y240499D02*
X663000D01*
Y237500D01*
X664999Y238500D01*
X665999D01*
X666998Y237500D01*
Y235501D01*
X665999Y234501D01*
X663999D01*
X663000Y235501D01*
X603999Y229502D02*
X598001D01*
Y232501D01*
X599001Y233500D01*
X601000D01*
X602000Y232501D01*
Y229502D01*
Y231501D02*
X603999Y233500D01*
Y238499D02*
X598001D01*
X601000Y235500D01*
Y239498D01*
X578999Y176502D02*
X573001D01*
Y179501D01*
X574001Y180500D01*
X576000D01*
X577000Y179501D01*
Y176502D01*
Y178501D02*
X578999Y180500D01*
X574001Y182500D02*
X573001Y183499D01*
Y185499D01*
X574001Y186498D01*
X575000D01*
X576000Y185499D01*
Y184499D01*
Y185499D01*
X577000Y186498D01*
X577999D01*
X578999Y185499D01*
Y183499D01*
X577999Y182500D01*
X577999Y203002D02*
X572001D01*
Y206001D01*
X573001Y207000D01*
X575000D01*
X576000Y206001D01*
Y203002D01*
Y205001D02*
X577999Y207000D01*
Y212998D02*
Y209000D01*
X574000Y212998D01*
X573001D01*
X572001Y211999D01*
Y209999D01*
X573001Y209000D01*
X592999Y173001D02*
X587001D01*
Y176000D01*
X588001Y177000D01*
X590000D01*
X591000Y176000D01*
Y173001D01*
Y175001D02*
X592999Y177000D01*
Y178999D02*
Y180999D01*
Y179999D01*
X587001D01*
X588001Y178999D01*
X574100Y230400D02*
Y236398D01*
X577099D01*
X578099Y235398D01*
Y233399D01*
X577099Y232399D01*
X574100D01*
X583097Y230400D02*
Y236398D01*
X580098Y233399D01*
X584097D01*
X659650Y208350D02*
Y214348D01*
X662649D01*
X663649Y213348D01*
Y211349D01*
X662649Y210349D01*
X659650D01*
X665648Y213348D02*
X666648Y214348D01*
X668647D01*
X669647Y213348D01*
Y212349D01*
X668647Y211349D01*
X667647D01*
X668647D01*
X669647Y210349D01*
Y209350D01*
X668647Y208350D01*
X666648D01*
X665648Y209350D01*
X576002Y137001D02*
Y142999D01*
X579001D01*
X580000Y141999D01*
Y140000D01*
X579001Y139000D01*
X576002D01*
X585998Y137001D02*
X582000D01*
X585998Y141000D01*
Y141999D01*
X584999Y142999D01*
X582999D01*
X582000Y141999D01*
X559600Y208400D02*
Y214398D01*
X562599D01*
X563599Y213398D01*
Y211399D01*
X562599Y210399D01*
X559600D01*
X565598Y208400D02*
X567597D01*
X566598D01*
Y214398D01*
X565598Y213398D01*
X606001Y205500D02*
X605001Y204501D01*
Y202501D01*
X606001Y201502D01*
X609999D01*
X610999Y202501D01*
Y204501D01*
X609999Y205500D01*
X610999Y211498D02*
Y207500D01*
X607000Y211498D01*
X606001D01*
X605001Y210499D01*
Y208499D01*
X606001Y207500D01*
X597501Y206500D02*
X596501Y205500D01*
Y203501D01*
X597501Y202501D01*
X601499D01*
X602499Y203501D01*
Y205500D01*
X601499Y206500D01*
X602499Y208499D02*
Y210499D01*
Y209499D01*
X596501D01*
X597501Y208499D01*
X576001Y198999D02*
X579999Y195001D01*
X576001D02*
X579999Y198999D01*
X576001Y197000D02*
X579999D01*
X578000Y195001D02*
Y198999D01*
M02*
