G04*
G04 #@! TF.GenerationSoftware,Altium Limited,Altium Designer,20.1.11 (218)*
G04*
G04 Layer_Physical_Order=2*
G04 Layer_Color=16711680*
%FSLAX25Y25*%
%MOIN*%
G70*
G04*
G04 #@! TF.SameCoordinates,36FDBAD9-5122-4A0A-A9A9-D65628025C9C*
G04*
G04*
G04 #@! TF.FilePolarity,Positive*
G04*
G01*
G75*
%ADD30C,0.01500*%
%ADD31R,0.05906X0.05906*%
%ADD32C,0.05906*%
%ADD33R,0.05906X0.05906*%
%ADD34C,0.02000*%
%ADD35C,0.06000*%
G36*
X673500Y121000D02*
X553000D01*
Y281500D01*
X673500D01*
Y121000D01*
D02*
G37*
%LPC*%
G36*
X567500Y278969D02*
Y275500D01*
X570969D01*
X570897Y276044D01*
X570494Y277017D01*
X569853Y277853D01*
X569017Y278494D01*
X568044Y278897D01*
X567500Y278969D01*
D02*
G37*
G36*
X566500D02*
X565956Y278897D01*
X564983Y278494D01*
X564147Y277853D01*
X563506Y277017D01*
X563103Y276044D01*
X563031Y275500D01*
X566500D01*
Y278969D01*
D02*
G37*
G36*
X664000Y278631D02*
X663060Y278507D01*
X662184Y278145D01*
X661432Y277568D01*
X660855Y276816D01*
X660493Y275940D01*
X660369Y275000D01*
X660493Y274060D01*
X660855Y273184D01*
X661432Y272432D01*
X662184Y271855D01*
X663060Y271493D01*
X664000Y271369D01*
X664940Y271493D01*
X665815Y271855D01*
X666568Y272432D01*
X667145Y273184D01*
X667507Y274060D01*
X667631Y275000D01*
X667507Y275940D01*
X667145Y276816D01*
X666568Y277568D01*
X665815Y278145D01*
X664940Y278507D01*
X664000Y278631D01*
D02*
G37*
G36*
X645500D02*
X644560Y278507D01*
X643684Y278145D01*
X642932Y277568D01*
X642355Y276816D01*
X641993Y275940D01*
X641869Y275000D01*
X641993Y274060D01*
X642355Y273184D01*
X642932Y272432D01*
X643684Y271855D01*
X644560Y271493D01*
X645500Y271369D01*
X646440Y271493D01*
X647316Y271855D01*
X648068Y272432D01*
X648645Y273184D01*
X649007Y274060D01*
X649131Y275000D01*
X649007Y275940D01*
X648645Y276816D01*
X648068Y277568D01*
X647316Y278145D01*
X646440Y278507D01*
X645500Y278631D01*
D02*
G37*
G36*
X635000D02*
X634060Y278507D01*
X633184Y278145D01*
X632432Y277568D01*
X631855Y276816D01*
X631493Y275940D01*
X631369Y275000D01*
X631493Y274060D01*
X631855Y273184D01*
X632432Y272432D01*
X633184Y271855D01*
X634060Y271493D01*
X635000Y271369D01*
X635940Y271493D01*
X636816Y271855D01*
X637568Y272432D01*
X638145Y273184D01*
X638507Y274060D01*
X638631Y275000D01*
X638507Y275940D01*
X638145Y276816D01*
X637568Y277568D01*
X636816Y278145D01*
X635940Y278507D01*
X635000Y278631D01*
D02*
G37*
G36*
X625000D02*
X624060Y278507D01*
X623184Y278145D01*
X622432Y277568D01*
X621855Y276816D01*
X621493Y275940D01*
X621369Y275000D01*
X621493Y274060D01*
X621855Y273184D01*
X622432Y272432D01*
X623184Y271855D01*
X624060Y271493D01*
X625000Y271369D01*
X625940Y271493D01*
X626816Y271855D01*
X627568Y272432D01*
X628145Y273184D01*
X628507Y274060D01*
X628631Y275000D01*
X628507Y275940D01*
X628145Y276816D01*
X627568Y277568D01*
X626816Y278145D01*
X625940Y278507D01*
X625000Y278631D01*
D02*
G37*
G36*
X614500D02*
X613560Y278507D01*
X612684Y278145D01*
X611932Y277568D01*
X611355Y276816D01*
X610993Y275940D01*
X610869Y275000D01*
X610993Y274060D01*
X611355Y273184D01*
X611932Y272432D01*
X612684Y271855D01*
X613560Y271493D01*
X614500Y271369D01*
X615440Y271493D01*
X616316Y271855D01*
X617068Y272432D01*
X617645Y273184D01*
X618007Y274060D01*
X618131Y275000D01*
X618007Y275940D01*
X617645Y276816D01*
X617068Y277568D01*
X616316Y278145D01*
X615440Y278507D01*
X614500Y278631D01*
D02*
G37*
G36*
X604500D02*
X603560Y278507D01*
X602684Y278145D01*
X601932Y277568D01*
X601355Y276816D01*
X600993Y275940D01*
X600869Y275000D01*
X600993Y274060D01*
X601355Y273184D01*
X601932Y272432D01*
X602684Y271855D01*
X603560Y271493D01*
X604500Y271369D01*
X605440Y271493D01*
X606316Y271855D01*
X607068Y272432D01*
X607645Y273184D01*
X608007Y274060D01*
X608131Y275000D01*
X608007Y275940D01*
X607645Y276816D01*
X607068Y277568D01*
X606316Y278145D01*
X605440Y278507D01*
X604500Y278631D01*
D02*
G37*
G36*
X594000D02*
X593060Y278507D01*
X592184Y278145D01*
X591432Y277568D01*
X590855Y276816D01*
X590493Y275940D01*
X590369Y275000D01*
X590493Y274060D01*
X590855Y273184D01*
X591432Y272432D01*
X592184Y271855D01*
X593060Y271493D01*
X594000Y271369D01*
X594940Y271493D01*
X595816Y271855D01*
X596568Y272432D01*
X597145Y273184D01*
X597507Y274060D01*
X597631Y275000D01*
X597507Y275940D01*
X597145Y276816D01*
X596568Y277568D01*
X595816Y278145D01*
X594940Y278507D01*
X594000Y278631D01*
D02*
G37*
G36*
X584000D02*
X583060Y278507D01*
X582185Y278145D01*
X581432Y277568D01*
X580855Y276816D01*
X580493Y275940D01*
X580369Y275000D01*
X580493Y274060D01*
X580855Y273184D01*
X581432Y272432D01*
X582185Y271855D01*
X583060Y271493D01*
X584000Y271369D01*
X584940Y271493D01*
X585815Y271855D01*
X586568Y272432D01*
X587145Y273184D01*
X587507Y274060D01*
X587631Y275000D01*
X587507Y275940D01*
X587145Y276816D01*
X586568Y277568D01*
X585815Y278145D01*
X584940Y278507D01*
X584000Y278631D01*
D02*
G37*
G36*
X570969Y274500D02*
X567500D01*
Y271031D01*
X568044Y271103D01*
X569017Y271506D01*
X569853Y272147D01*
X570494Y272983D01*
X570897Y273956D01*
X570969Y274500D01*
D02*
G37*
G36*
X566500D02*
X563031D01*
X563103Y273956D01*
X563506Y272983D01*
X564147Y272147D01*
X564983Y271506D01*
X565956Y271103D01*
X566500Y271031D01*
Y274500D01*
D02*
G37*
G36*
X567500Y268969D02*
Y265500D01*
X570969D01*
X570897Y266044D01*
X570494Y267017D01*
X569853Y267853D01*
X569017Y268494D01*
X568044Y268897D01*
X567500Y268969D01*
D02*
G37*
G36*
X566500D02*
X565956Y268897D01*
X564983Y268494D01*
X564147Y267853D01*
X563506Y267017D01*
X563103Y266044D01*
X563031Y265500D01*
X566500D01*
Y268969D01*
D02*
G37*
G36*
X664000Y268631D02*
X663060Y268507D01*
X662184Y268145D01*
X661432Y267567D01*
X660855Y266815D01*
X660493Y265940D01*
X660369Y265000D01*
X660493Y264060D01*
X660855Y263184D01*
X661432Y262433D01*
X662184Y261855D01*
X663060Y261493D01*
X664000Y261369D01*
X664940Y261493D01*
X665815Y261855D01*
X666568Y262433D01*
X667145Y263184D01*
X667507Y264060D01*
X667631Y265000D01*
X667507Y265940D01*
X667145Y266815D01*
X666568Y267567D01*
X665815Y268145D01*
X664940Y268507D01*
X664000Y268631D01*
D02*
G37*
G36*
X645500D02*
X644560Y268507D01*
X643684Y268145D01*
X642932Y267567D01*
X642355Y266815D01*
X641993Y265940D01*
X641869Y265000D01*
X641993Y264060D01*
X642355Y263184D01*
X642932Y262433D01*
X643684Y261855D01*
X644560Y261493D01*
X645500Y261369D01*
X646440Y261493D01*
X647316Y261855D01*
X648068Y262433D01*
X648645Y263184D01*
X649007Y264060D01*
X649131Y265000D01*
X649007Y265940D01*
X648645Y266815D01*
X648068Y267567D01*
X647316Y268145D01*
X646440Y268507D01*
X645500Y268631D01*
D02*
G37*
G36*
X635000D02*
X634060Y268507D01*
X633184Y268145D01*
X632432Y267567D01*
X631855Y266815D01*
X631493Y265940D01*
X631369Y265000D01*
X631493Y264060D01*
X631855Y263184D01*
X632432Y262433D01*
X633184Y261855D01*
X634060Y261493D01*
X635000Y261369D01*
X635940Y261493D01*
X636816Y261855D01*
X637568Y262433D01*
X638145Y263184D01*
X638507Y264060D01*
X638631Y265000D01*
X638507Y265940D01*
X638145Y266815D01*
X637568Y267567D01*
X636816Y268145D01*
X635940Y268507D01*
X635000Y268631D01*
D02*
G37*
G36*
X625000D02*
X624060Y268507D01*
X623184Y268145D01*
X622432Y267567D01*
X621855Y266815D01*
X621493Y265940D01*
X621369Y265000D01*
X621493Y264060D01*
X621855Y263184D01*
X622432Y262433D01*
X623184Y261855D01*
X624060Y261493D01*
X625000Y261369D01*
X625940Y261493D01*
X626816Y261855D01*
X627568Y262433D01*
X628145Y263184D01*
X628507Y264060D01*
X628631Y265000D01*
X628507Y265940D01*
X628145Y266815D01*
X627568Y267567D01*
X626816Y268145D01*
X625940Y268507D01*
X625000Y268631D01*
D02*
G37*
G36*
X614500D02*
X613560Y268507D01*
X612684Y268145D01*
X611932Y267567D01*
X611355Y266815D01*
X610993Y265940D01*
X610869Y265000D01*
X610993Y264060D01*
X611355Y263184D01*
X611932Y262433D01*
X612684Y261855D01*
X613560Y261493D01*
X614500Y261369D01*
X615440Y261493D01*
X616316Y261855D01*
X617068Y262433D01*
X617645Y263184D01*
X618007Y264060D01*
X618131Y265000D01*
X618007Y265940D01*
X617645Y266815D01*
X617068Y267567D01*
X616316Y268145D01*
X615440Y268507D01*
X614500Y268631D01*
D02*
G37*
G36*
X604500D02*
X603560Y268507D01*
X602684Y268145D01*
X601932Y267567D01*
X601355Y266815D01*
X600993Y265940D01*
X600869Y265000D01*
X600993Y264060D01*
X601355Y263184D01*
X601932Y262433D01*
X602684Y261855D01*
X603560Y261493D01*
X604500Y261369D01*
X605440Y261493D01*
X606316Y261855D01*
X607068Y262433D01*
X607645Y263184D01*
X608007Y264060D01*
X608131Y265000D01*
X608007Y265940D01*
X607645Y266815D01*
X607068Y267567D01*
X606316Y268145D01*
X605440Y268507D01*
X604500Y268631D01*
D02*
G37*
G36*
X594000D02*
X593060Y268507D01*
X592184Y268145D01*
X591432Y267567D01*
X590855Y266815D01*
X590493Y265940D01*
X590369Y265000D01*
X590493Y264060D01*
X590855Y263184D01*
X591432Y262433D01*
X592184Y261855D01*
X593060Y261493D01*
X594000Y261369D01*
X594940Y261493D01*
X595816Y261855D01*
X596568Y262433D01*
X597145Y263184D01*
X597507Y264060D01*
X597631Y265000D01*
X597507Y265940D01*
X597145Y266815D01*
X596568Y267567D01*
X595816Y268145D01*
X594940Y268507D01*
X594000Y268631D01*
D02*
G37*
G36*
X584000D02*
X583060Y268507D01*
X582185Y268145D01*
X581432Y267567D01*
X580855Y266815D01*
X580493Y265940D01*
X580369Y265000D01*
X580493Y264060D01*
X580855Y263184D01*
X581432Y262433D01*
X582185Y261855D01*
X583060Y261493D01*
X584000Y261369D01*
X584940Y261493D01*
X585815Y261855D01*
X586568Y262433D01*
X587145Y263184D01*
X587507Y264060D01*
X587631Y265000D01*
X587507Y265940D01*
X587145Y266815D01*
X586568Y267567D01*
X585815Y268145D01*
X584940Y268507D01*
X584000Y268631D01*
D02*
G37*
G36*
X570969Y264500D02*
X567500D01*
Y261031D01*
X568044Y261103D01*
X569017Y261506D01*
X569853Y262147D01*
X570494Y262983D01*
X570897Y263956D01*
X570969Y264500D01*
D02*
G37*
G36*
X566500D02*
X563031D01*
X563103Y263956D01*
X563506Y262983D01*
X564147Y262147D01*
X564983Y261506D01*
X565956Y261103D01*
X566500Y261031D01*
Y264500D01*
D02*
G37*
G36*
X567500Y258969D02*
Y255500D01*
X570969D01*
X570897Y256044D01*
X570494Y257017D01*
X569853Y257853D01*
X569017Y258494D01*
X568044Y258897D01*
X567500Y258969D01*
D02*
G37*
G36*
X566500D02*
X565956Y258897D01*
X564983Y258494D01*
X564147Y257853D01*
X563506Y257017D01*
X563103Y256044D01*
X563031Y255500D01*
X566500D01*
Y258969D01*
D02*
G37*
G36*
X664000Y258631D02*
X663060Y258507D01*
X662184Y258145D01*
X661432Y257568D01*
X660855Y256816D01*
X660493Y255940D01*
X660369Y255000D01*
X660493Y254060D01*
X660855Y253185D01*
X661432Y252432D01*
X662184Y251855D01*
X663060Y251493D01*
X664000Y251369D01*
X664940Y251493D01*
X665815Y251855D01*
X666568Y252432D01*
X667145Y253185D01*
X667507Y254060D01*
X667631Y255000D01*
X667507Y255940D01*
X667145Y256816D01*
X666568Y257568D01*
X665815Y258145D01*
X664940Y258507D01*
X664000Y258631D01*
D02*
G37*
G36*
X645500D02*
X644560Y258507D01*
X643684Y258145D01*
X642932Y257568D01*
X642355Y256816D01*
X641993Y255940D01*
X641869Y255000D01*
X641993Y254060D01*
X642355Y253185D01*
X642932Y252432D01*
X643684Y251855D01*
X644560Y251493D01*
X645500Y251369D01*
X646440Y251493D01*
X647316Y251855D01*
X648068Y252432D01*
X648645Y253185D01*
X649007Y254060D01*
X649131Y255000D01*
X649007Y255940D01*
X648645Y256816D01*
X648068Y257568D01*
X647316Y258145D01*
X646440Y258507D01*
X645500Y258631D01*
D02*
G37*
G36*
X635000D02*
X634060Y258507D01*
X633184Y258145D01*
X632432Y257568D01*
X631855Y256816D01*
X631493Y255940D01*
X631369Y255000D01*
X631493Y254060D01*
X631855Y253185D01*
X632432Y252432D01*
X633184Y251855D01*
X634060Y251493D01*
X635000Y251369D01*
X635940Y251493D01*
X636816Y251855D01*
X637568Y252432D01*
X638145Y253185D01*
X638507Y254060D01*
X638631Y255000D01*
X638507Y255940D01*
X638145Y256816D01*
X637568Y257568D01*
X636816Y258145D01*
X635940Y258507D01*
X635000Y258631D01*
D02*
G37*
G36*
X625000D02*
X624060Y258507D01*
X623184Y258145D01*
X622432Y257568D01*
X621855Y256816D01*
X621493Y255940D01*
X621369Y255000D01*
X621493Y254060D01*
X621855Y253185D01*
X622432Y252432D01*
X623184Y251855D01*
X624060Y251493D01*
X625000Y251369D01*
X625940Y251493D01*
X626816Y251855D01*
X627568Y252432D01*
X628145Y253185D01*
X628507Y254060D01*
X628631Y255000D01*
X628507Y255940D01*
X628145Y256816D01*
X627568Y257568D01*
X626816Y258145D01*
X625940Y258507D01*
X625000Y258631D01*
D02*
G37*
G36*
X614500D02*
X613560Y258507D01*
X612684Y258145D01*
X611932Y257568D01*
X611355Y256816D01*
X610993Y255940D01*
X610869Y255000D01*
X610993Y254060D01*
X611355Y253185D01*
X611932Y252432D01*
X612684Y251855D01*
X613560Y251493D01*
X614500Y251369D01*
X615440Y251493D01*
X616316Y251855D01*
X617068Y252432D01*
X617645Y253185D01*
X618007Y254060D01*
X618131Y255000D01*
X618007Y255940D01*
X617645Y256816D01*
X617068Y257568D01*
X616316Y258145D01*
X615440Y258507D01*
X614500Y258631D01*
D02*
G37*
G36*
X604500D02*
X603560Y258507D01*
X602684Y258145D01*
X601932Y257568D01*
X601355Y256816D01*
X600993Y255940D01*
X600869Y255000D01*
X600993Y254060D01*
X601355Y253185D01*
X601932Y252432D01*
X602684Y251855D01*
X603560Y251493D01*
X604500Y251369D01*
X605440Y251493D01*
X606316Y251855D01*
X607068Y252432D01*
X607645Y253185D01*
X608007Y254060D01*
X608131Y255000D01*
X608007Y255940D01*
X607645Y256816D01*
X607068Y257568D01*
X606316Y258145D01*
X605440Y258507D01*
X604500Y258631D01*
D02*
G37*
G36*
X594000D02*
X593060Y258507D01*
X592184Y258145D01*
X591432Y257568D01*
X590855Y256816D01*
X590493Y255940D01*
X590369Y255000D01*
X590493Y254060D01*
X590855Y253185D01*
X591432Y252432D01*
X592184Y251855D01*
X593060Y251493D01*
X594000Y251369D01*
X594940Y251493D01*
X595816Y251855D01*
X596568Y252432D01*
X597145Y253185D01*
X597507Y254060D01*
X597631Y255000D01*
X597507Y255940D01*
X597145Y256816D01*
X596568Y257568D01*
X595816Y258145D01*
X594940Y258507D01*
X594000Y258631D01*
D02*
G37*
G36*
X584000D02*
X583060Y258507D01*
X582185Y258145D01*
X581432Y257568D01*
X580855Y256816D01*
X580493Y255940D01*
X580369Y255000D01*
X580493Y254060D01*
X580855Y253185D01*
X581432Y252432D01*
X582185Y251855D01*
X583060Y251493D01*
X584000Y251369D01*
X584940Y251493D01*
X585815Y251855D01*
X586568Y252432D01*
X587145Y253185D01*
X587507Y254060D01*
X587631Y255000D01*
X587507Y255940D01*
X587145Y256816D01*
X586568Y257568D01*
X585815Y258145D01*
X584940Y258507D01*
X584000Y258631D01*
D02*
G37*
G36*
X570969Y254500D02*
X567500D01*
Y251031D01*
X568044Y251103D01*
X569017Y251506D01*
X569853Y252147D01*
X570494Y252983D01*
X570897Y253956D01*
X570969Y254500D01*
D02*
G37*
G36*
X566500D02*
X563031D01*
X563103Y253956D01*
X563506Y252983D01*
X564147Y252147D01*
X564983Y251506D01*
X565956Y251103D01*
X566500Y251031D01*
Y254500D01*
D02*
G37*
G36*
X567500Y249469D02*
Y246000D01*
X570969D01*
X570897Y246544D01*
X570494Y247517D01*
X569853Y248353D01*
X569017Y248994D01*
X568044Y249397D01*
X567500Y249469D01*
D02*
G37*
G36*
X566500D02*
X565956Y249397D01*
X564983Y248994D01*
X564147Y248353D01*
X563506Y247517D01*
X563103Y246544D01*
X563031Y246000D01*
X566500D01*
Y249469D01*
D02*
G37*
G36*
X664000Y249131D02*
X663060Y249007D01*
X662184Y248645D01*
X661432Y248067D01*
X660855Y247316D01*
X660493Y246440D01*
X660369Y245500D01*
X660493Y244560D01*
X660855Y243685D01*
X661432Y242933D01*
X662184Y242355D01*
X663060Y241993D01*
X664000Y241869D01*
X664940Y241993D01*
X665815Y242355D01*
X666568Y242933D01*
X667145Y243685D01*
X667507Y244560D01*
X667631Y245500D01*
X667507Y246440D01*
X667145Y247316D01*
X666568Y248067D01*
X665815Y248645D01*
X664940Y249007D01*
X664000Y249131D01*
D02*
G37*
G36*
X645500D02*
X644560Y249007D01*
X643684Y248645D01*
X642932Y248067D01*
X642355Y247316D01*
X641993Y246440D01*
X641869Y245500D01*
X641993Y244560D01*
X642355Y243685D01*
X642932Y242933D01*
X643684Y242355D01*
X644560Y241993D01*
X645500Y241869D01*
X646440Y241993D01*
X647316Y242355D01*
X648068Y242933D01*
X648645Y243685D01*
X649007Y244560D01*
X649131Y245500D01*
X649007Y246440D01*
X648645Y247316D01*
X648068Y248067D01*
X647316Y248645D01*
X646440Y249007D01*
X645500Y249131D01*
D02*
G37*
G36*
X635000D02*
X634060Y249007D01*
X633184Y248645D01*
X632432Y248067D01*
X631855Y247316D01*
X631493Y246440D01*
X631369Y245500D01*
X631493Y244560D01*
X631855Y243685D01*
X632432Y242933D01*
X633184Y242355D01*
X634060Y241993D01*
X635000Y241869D01*
X635940Y241993D01*
X636816Y242355D01*
X637568Y242933D01*
X638145Y243685D01*
X638507Y244560D01*
X638631Y245500D01*
X638507Y246440D01*
X638145Y247316D01*
X637568Y248067D01*
X636816Y248645D01*
X635940Y249007D01*
X635000Y249131D01*
D02*
G37*
G36*
X625000D02*
X624060Y249007D01*
X623184Y248645D01*
X622432Y248067D01*
X621855Y247316D01*
X621493Y246440D01*
X621369Y245500D01*
X621493Y244560D01*
X621855Y243685D01*
X622432Y242933D01*
X623184Y242355D01*
X624060Y241993D01*
X625000Y241869D01*
X625940Y241993D01*
X626816Y242355D01*
X627568Y242933D01*
X628145Y243685D01*
X628507Y244560D01*
X628631Y245500D01*
X628507Y246440D01*
X628145Y247316D01*
X627568Y248067D01*
X626816Y248645D01*
X625940Y249007D01*
X625000Y249131D01*
D02*
G37*
G36*
X614500D02*
X613560Y249007D01*
X612684Y248645D01*
X611932Y248067D01*
X611355Y247316D01*
X610993Y246440D01*
X610869Y245500D01*
X610993Y244560D01*
X611355Y243685D01*
X611932Y242933D01*
X612684Y242355D01*
X613560Y241993D01*
X614500Y241869D01*
X615440Y241993D01*
X616316Y242355D01*
X617068Y242933D01*
X617645Y243685D01*
X618007Y244560D01*
X618131Y245500D01*
X618007Y246440D01*
X617645Y247316D01*
X617068Y248067D01*
X616316Y248645D01*
X615440Y249007D01*
X614500Y249131D01*
D02*
G37*
G36*
X604500D02*
X603560Y249007D01*
X602684Y248645D01*
X601932Y248067D01*
X601355Y247316D01*
X600993Y246440D01*
X600869Y245500D01*
X600993Y244560D01*
X601355Y243685D01*
X601932Y242933D01*
X602684Y242355D01*
X603560Y241993D01*
X604500Y241869D01*
X605440Y241993D01*
X606316Y242355D01*
X607068Y242933D01*
X607645Y243685D01*
X608007Y244560D01*
X608131Y245500D01*
X608007Y246440D01*
X607645Y247316D01*
X607068Y248067D01*
X606316Y248645D01*
X605440Y249007D01*
X604500Y249131D01*
D02*
G37*
G36*
X594000D02*
X593060Y249007D01*
X592184Y248645D01*
X591432Y248067D01*
X590855Y247316D01*
X590493Y246440D01*
X590369Y245500D01*
X590493Y244560D01*
X590855Y243685D01*
X591432Y242933D01*
X592184Y242355D01*
X593060Y241993D01*
X594000Y241869D01*
X594940Y241993D01*
X595816Y242355D01*
X596568Y242933D01*
X597145Y243685D01*
X597507Y244560D01*
X597631Y245500D01*
X597507Y246440D01*
X597145Y247316D01*
X596568Y248067D01*
X595816Y248645D01*
X594940Y249007D01*
X594000Y249131D01*
D02*
G37*
G36*
X584000D02*
X583060Y249007D01*
X582185Y248645D01*
X581432Y248067D01*
X580855Y247316D01*
X580493Y246440D01*
X580369Y245500D01*
X580493Y244560D01*
X580855Y243685D01*
X581432Y242933D01*
X582185Y242355D01*
X583060Y241993D01*
X584000Y241869D01*
X584940Y241993D01*
X585815Y242355D01*
X586568Y242933D01*
X587145Y243685D01*
X587507Y244560D01*
X587631Y245500D01*
X587507Y246440D01*
X587145Y247316D01*
X586568Y248067D01*
X585815Y248645D01*
X584940Y249007D01*
X584000Y249131D01*
D02*
G37*
G36*
X570969Y245000D02*
X567500D01*
Y241531D01*
X568044Y241603D01*
X569017Y242006D01*
X569853Y242647D01*
X570494Y243483D01*
X570897Y244456D01*
X570969Y245000D01*
D02*
G37*
G36*
X566500D02*
X563031D01*
X563103Y244456D01*
X563506Y243483D01*
X564147Y242647D01*
X564983Y242006D01*
X565956Y241603D01*
X566500Y241531D01*
Y245000D01*
D02*
G37*
G36*
X579000Y225921D02*
Y222500D01*
X582421D01*
X582351Y223032D01*
X581953Y223993D01*
X581319Y224819D01*
X580493Y225453D01*
X579532Y225851D01*
X579000Y225921D01*
D02*
G37*
G36*
X578000D02*
X577468Y225851D01*
X576507Y225453D01*
X575681Y224819D01*
X575047Y223993D01*
X574649Y223032D01*
X574579Y222500D01*
X578000D01*
Y225921D01*
D02*
G37*
G36*
X646500Y229876D02*
X634379D01*
X633852Y229772D01*
X633405Y229473D01*
X632527Y228595D01*
X632228Y228148D01*
X632124Y227621D01*
Y223842D01*
X631624Y223743D01*
X631603Y223792D01*
X631034Y224534D01*
X630292Y225103D01*
X629427Y225461D01*
X628500Y225583D01*
X627572Y225461D01*
X626708Y225103D01*
X625966Y224534D01*
X625397Y223792D01*
X625039Y222927D01*
X624917Y222000D01*
X625039Y221073D01*
X625397Y220208D01*
X625966Y219466D01*
X626708Y218897D01*
X627572Y218539D01*
X628500Y218417D01*
X629427Y218539D01*
X630292Y218897D01*
X631034Y219466D01*
X631603Y220208D01*
X631624Y220257D01*
X632124Y220158D01*
Y213570D01*
X613607Y195053D01*
X613376Y195007D01*
X612847Y194653D01*
X612493Y194124D01*
X612369Y193500D01*
X612493Y192876D01*
X612847Y192347D01*
X613376Y191993D01*
X614000Y191869D01*
X614624Y191993D01*
X615154Y192347D01*
X615507Y192876D01*
X615553Y193106D01*
X634473Y212027D01*
X634473Y212027D01*
X634772Y212473D01*
X634876Y213000D01*
Y220158D01*
X635377Y220257D01*
X635397Y220208D01*
X635966Y219466D01*
X636708Y218897D01*
X637123Y218725D01*
Y202570D01*
X611018Y176465D01*
X610787Y176419D01*
X610258Y176065D01*
X609904Y175536D01*
X609780Y174912D01*
X609904Y174287D01*
X610258Y173758D01*
X610787Y173405D01*
X611412Y173280D01*
X612036Y173405D01*
X612565Y173758D01*
X612919Y174287D01*
X612965Y174518D01*
X639473Y201027D01*
X639772Y201473D01*
X639877Y202000D01*
Y218725D01*
X640292Y218897D01*
X641034Y219466D01*
X641603Y220208D01*
X641961Y221073D01*
X642083Y222000D01*
X641961Y222927D01*
X641603Y223792D01*
X641034Y224534D01*
X640292Y225103D01*
X639428Y225461D01*
X638500Y225583D01*
X637572Y225461D01*
X636708Y225103D01*
X635966Y224534D01*
X635397Y223792D01*
X635377Y223743D01*
X634876Y223842D01*
Y227051D01*
X634949Y227123D01*
X645930D01*
X647001Y226053D01*
X646827Y225553D01*
X644947D01*
Y218447D01*
X652053D01*
Y225553D01*
X649876D01*
Y226500D01*
X649876Y226500D01*
X649772Y227027D01*
X649473Y227473D01*
X647473Y229473D01*
X647027Y229772D01*
X646500Y229876D01*
D02*
G37*
G36*
X618500Y225583D02*
X617572Y225461D01*
X616708Y225103D01*
X615966Y224534D01*
X615397Y223792D01*
X615039Y222927D01*
X614917Y222000D01*
X615039Y221073D01*
X615397Y220208D01*
X615966Y219466D01*
X616708Y218897D01*
X617572Y218539D01*
X618500Y218417D01*
X619427Y218539D01*
X620292Y218897D01*
X621034Y219466D01*
X621603Y220208D01*
X621961Y221073D01*
X622083Y222000D01*
X621961Y222927D01*
X621603Y223792D01*
X621034Y224534D01*
X620292Y225103D01*
X619427Y225461D01*
X618500Y225583D01*
D02*
G37*
G36*
X608500D02*
X607573Y225461D01*
X606708Y225103D01*
X605966Y224534D01*
X605397Y223792D01*
X605039Y222927D01*
X604917Y222000D01*
X605039Y221073D01*
X605397Y220208D01*
X605590Y219956D01*
X605527Y219892D01*
X605228Y219445D01*
X605124Y218919D01*
Y173000D01*
X605228Y172473D01*
X605527Y172027D01*
X629527Y148027D01*
X629973Y147728D01*
X630500Y147624D01*
X633180D01*
X633376Y147493D01*
X634000Y147369D01*
X634624Y147493D01*
X635153Y147846D01*
X635507Y148376D01*
X635631Y149000D01*
X635507Y149624D01*
X635153Y150154D01*
X634624Y150507D01*
X634000Y150631D01*
X633376Y150507D01*
X633180Y150376D01*
X631070D01*
X607876Y173570D01*
Y218024D01*
X608340Y218438D01*
X608500Y218417D01*
X609427Y218539D01*
X610292Y218897D01*
X611034Y219466D01*
X611603Y220208D01*
X611961Y221073D01*
X612083Y222000D01*
X611961Y222927D01*
X611603Y223792D01*
X611034Y224534D01*
X610292Y225103D01*
X609427Y225461D01*
X608500Y225583D01*
D02*
G37*
G36*
X588500D02*
X587572Y225461D01*
X586708Y225103D01*
X585966Y224534D01*
X585397Y223792D01*
X585039Y222927D01*
X584917Y222000D01*
X585039Y221073D01*
X585397Y220208D01*
X585966Y219466D01*
X586708Y218897D01*
X587572Y218539D01*
X588500Y218417D01*
X589428Y218539D01*
X590292Y218897D01*
X591034Y219466D01*
X591603Y220208D01*
X591961Y221073D01*
X592083Y222000D01*
X591961Y222927D01*
X591603Y223792D01*
X591034Y224534D01*
X590292Y225103D01*
X589428Y225461D01*
X588500Y225583D01*
D02*
G37*
G36*
X582421Y221500D02*
X579000D01*
Y218079D01*
X579532Y218149D01*
X580493Y218547D01*
X581319Y219181D01*
X581953Y220007D01*
X582351Y220968D01*
X582421Y221500D01*
D02*
G37*
G36*
X578000D02*
X574579D01*
X574649Y220968D01*
X575047Y220007D01*
X575681Y219181D01*
X576507Y218547D01*
X577468Y218149D01*
X578000Y218079D01*
Y221500D01*
D02*
G37*
G36*
X567553Y203553D02*
X560447D01*
Y196447D01*
X567553D01*
Y203553D01*
D02*
G37*
G36*
X664000Y203583D02*
X663072Y203461D01*
X662208Y203103D01*
X661466Y202534D01*
X660897Y201792D01*
X660539Y200927D01*
X660417Y200000D01*
X660539Y199073D01*
X660897Y198208D01*
X661466Y197466D01*
X662208Y196897D01*
X663072Y196539D01*
X664000Y196417D01*
X664927Y196539D01*
X665792Y196897D01*
X666534Y197466D01*
X667103Y198208D01*
X667461Y199073D01*
X667583Y200000D01*
X667461Y200927D01*
X667103Y201792D01*
X666534Y202534D01*
X665792Y203103D01*
X664927Y203461D01*
X664000Y203583D01*
D02*
G37*
G36*
X624000Y196940D02*
Y195500D01*
X625440D01*
X625384Y195780D01*
X624942Y196442D01*
X624280Y196884D01*
X624000Y196940D01*
D02*
G37*
G36*
X623000D02*
X622720Y196884D01*
X622058Y196442D01*
X621616Y195780D01*
X621560Y195500D01*
X623000D01*
Y196940D01*
D02*
G37*
G36*
X625440Y194500D02*
X624000D01*
Y193060D01*
X624280Y193116D01*
X624942Y193558D01*
X625384Y194220D01*
X625440Y194500D01*
D02*
G37*
G36*
X623000D02*
X621560D01*
X621616Y194220D01*
X622058Y193558D01*
X622720Y193116D01*
X623000Y193060D01*
Y194500D01*
D02*
G37*
G36*
X615000Y190440D02*
Y189000D01*
X616440D01*
X616384Y189280D01*
X615942Y189942D01*
X615280Y190384D01*
X615000Y190440D01*
D02*
G37*
G36*
X614000D02*
X613720Y190384D01*
X613058Y189942D01*
X612616Y189280D01*
X612560Y189000D01*
X614000D01*
Y190440D01*
D02*
G37*
G36*
X616440Y188000D02*
X615000D01*
Y186560D01*
X615280Y186616D01*
X615942Y187058D01*
X616384Y187720D01*
X616440Y188000D01*
D02*
G37*
G36*
X614000D02*
X612560D01*
X612616Y187720D01*
X613058Y187058D01*
X613720Y186616D01*
X614000Y186560D01*
Y188000D01*
D02*
G37*
G36*
X664000Y193583D02*
X663072Y193461D01*
X662208Y193103D01*
X661466Y192534D01*
X660897Y191792D01*
X660539Y190927D01*
X660417Y190000D01*
X660539Y189073D01*
X660897Y188208D01*
X661466Y187466D01*
X662208Y186897D01*
X663072Y186539D01*
X664000Y186417D01*
X664927Y186539D01*
X665792Y186897D01*
X666534Y187466D01*
X667103Y188208D01*
X667461Y189073D01*
X667583Y190000D01*
X667461Y190927D01*
X667103Y191792D01*
X666534Y192534D01*
X665792Y193103D01*
X664927Y193461D01*
X664000Y193583D01*
D02*
G37*
G36*
X564000D02*
X563072Y193461D01*
X562208Y193103D01*
X561466Y192534D01*
X560897Y191792D01*
X560539Y190927D01*
X560417Y190000D01*
X560539Y189073D01*
X560897Y188208D01*
X561466Y187466D01*
X562208Y186897D01*
X563072Y186539D01*
X564000Y186417D01*
X564927Y186539D01*
X565792Y186897D01*
X566534Y187466D01*
X567103Y188208D01*
X567461Y189073D01*
X567583Y190000D01*
X567461Y190927D01*
X567103Y191792D01*
X566534Y192534D01*
X565792Y193103D01*
X564927Y193461D01*
X564000Y193583D01*
D02*
G37*
G36*
X664000Y183583D02*
X663072Y183461D01*
X662208Y183103D01*
X661466Y182534D01*
X660897Y181792D01*
X660539Y180927D01*
X660417Y180000D01*
X660539Y179073D01*
X660897Y178208D01*
X661466Y177466D01*
X662208Y176897D01*
X663072Y176539D01*
X664000Y176417D01*
X664927Y176539D01*
X665792Y176897D01*
X666534Y177466D01*
X667103Y178208D01*
X667461Y179073D01*
X667583Y180000D01*
X667461Y180927D01*
X667103Y181792D01*
X666534Y182534D01*
X665792Y183103D01*
X664927Y183461D01*
X664000Y183583D01*
D02*
G37*
G36*
X564000D02*
X563072Y183461D01*
X562208Y183103D01*
X561466Y182534D01*
X560897Y181792D01*
X560539Y180927D01*
X560417Y180000D01*
X560539Y179073D01*
X560897Y178208D01*
X561466Y177466D01*
X562208Y176897D01*
X563072Y176539D01*
X564000Y176417D01*
X564927Y176539D01*
X565792Y176897D01*
X566534Y177466D01*
X567103Y178208D01*
X567461Y179073D01*
X567583Y180000D01*
X567461Y180927D01*
X567103Y181792D01*
X566534Y182534D01*
X565792Y183103D01*
X564927Y183461D01*
X564000Y183583D01*
D02*
G37*
G36*
X664000Y173583D02*
X663072Y173461D01*
X662208Y173103D01*
X661466Y172534D01*
X660897Y171792D01*
X660539Y170927D01*
X660417Y170000D01*
X660539Y169073D01*
X660897Y168208D01*
X661466Y167466D01*
X662208Y166897D01*
X663072Y166539D01*
X664000Y166417D01*
X664927Y166539D01*
X665792Y166897D01*
X666534Y167466D01*
X667103Y168208D01*
X667461Y169073D01*
X667583Y170000D01*
X667461Y170927D01*
X667103Y171792D01*
X666534Y172534D01*
X665792Y173103D01*
X664927Y173461D01*
X664000Y173583D01*
D02*
G37*
G36*
X564000D02*
X563072Y173461D01*
X562208Y173103D01*
X561466Y172534D01*
X560897Y171792D01*
X560539Y170927D01*
X560417Y170000D01*
X560539Y169073D01*
X560897Y168208D01*
X561466Y167466D01*
X562208Y166897D01*
X563072Y166539D01*
X564000Y166417D01*
X564927Y166539D01*
X565792Y166897D01*
X566534Y167466D01*
X567103Y168208D01*
X567461Y169073D01*
X567583Y170000D01*
X567461Y170927D01*
X567103Y171792D01*
X566534Y172534D01*
X565792Y173103D01*
X564927Y173461D01*
X564000Y173583D01*
D02*
G37*
G36*
X664000Y163583D02*
X663072Y163461D01*
X662208Y163103D01*
X661466Y162534D01*
X660897Y161792D01*
X660539Y160927D01*
X660417Y160000D01*
X660539Y159073D01*
X660897Y158208D01*
X661466Y157466D01*
X662208Y156897D01*
X663072Y156539D01*
X664000Y156417D01*
X664927Y156539D01*
X665792Y156897D01*
X666534Y157466D01*
X667103Y158208D01*
X667461Y159073D01*
X667583Y160000D01*
X667461Y160927D01*
X667103Y161792D01*
X666534Y162534D01*
X665792Y163103D01*
X664927Y163461D01*
X664000Y163583D01*
D02*
G37*
G36*
X564000D02*
X563072Y163461D01*
X562208Y163103D01*
X561466Y162534D01*
X560897Y161792D01*
X560539Y160927D01*
X560417Y160000D01*
X560539Y159073D01*
X560897Y158208D01*
X561466Y157466D01*
X562208Y156897D01*
X563072Y156539D01*
X564000Y156417D01*
X564927Y156539D01*
X565792Y156897D01*
X566534Y157466D01*
X567103Y158208D01*
X567461Y159073D01*
X567583Y160000D01*
X567461Y160927D01*
X567103Y161792D01*
X566534Y162534D01*
X565792Y163103D01*
X564927Y163461D01*
X564000Y163583D01*
D02*
G37*
G36*
X664000Y153583D02*
X663072Y153461D01*
X662208Y153103D01*
X661466Y152534D01*
X660897Y151792D01*
X660539Y150927D01*
X660417Y150000D01*
X660539Y149073D01*
X660897Y148208D01*
X661466Y147466D01*
X662208Y146897D01*
X663072Y146539D01*
X664000Y146417D01*
X664927Y146539D01*
X665792Y146897D01*
X666534Y147466D01*
X667103Y148208D01*
X667461Y149073D01*
X667583Y150000D01*
X667461Y150927D01*
X667103Y151792D01*
X666534Y152534D01*
X665792Y153103D01*
X664927Y153461D01*
X664000Y153583D01*
D02*
G37*
G36*
X564000D02*
X563072Y153461D01*
X562208Y153103D01*
X561466Y152534D01*
X560897Y151792D01*
X560539Y150927D01*
X560417Y150000D01*
X560539Y149073D01*
X560897Y148208D01*
X561466Y147466D01*
X562208Y146897D01*
X563072Y146539D01*
X564000Y146417D01*
X564927Y146539D01*
X565792Y146897D01*
X566534Y147466D01*
X567103Y148208D01*
X567461Y149073D01*
X567583Y150000D01*
X567461Y150927D01*
X567103Y151792D01*
X566534Y152534D01*
X565792Y153103D01*
X564927Y153461D01*
X564000Y153583D01*
D02*
G37*
G36*
X598500Y225583D02*
X597573Y225461D01*
X596708Y225103D01*
X595966Y224534D01*
X595397Y223792D01*
X595039Y222927D01*
X594917Y222000D01*
X595039Y221073D01*
X595397Y220208D01*
X595966Y219466D01*
X596708Y218897D01*
X597123Y218725D01*
Y173000D01*
X597228Y172473D01*
X597527Y172027D01*
X627027Y142527D01*
X627027Y142527D01*
X627473Y142228D01*
X628000Y142124D01*
X633180D01*
X633376Y141993D01*
X634000Y141869D01*
X634624Y141993D01*
X635153Y142347D01*
X635507Y142876D01*
X635631Y143500D01*
X635507Y144124D01*
X635153Y144653D01*
X634624Y145007D01*
X634000Y145131D01*
X633376Y145007D01*
X633180Y144876D01*
X628570D01*
X599876Y173570D01*
Y218725D01*
X600292Y218897D01*
X601034Y219466D01*
X601603Y220208D01*
X601961Y221073D01*
X602083Y222000D01*
X601961Y222927D01*
X601603Y223792D01*
X601034Y224534D01*
X600292Y225103D01*
X599428Y225461D01*
X598500Y225583D01*
D02*
G37*
G36*
X664000Y143583D02*
X663072Y143461D01*
X662208Y143103D01*
X661466Y142534D01*
X660897Y141792D01*
X660539Y140927D01*
X660417Y140000D01*
X660539Y139073D01*
X660897Y138208D01*
X661466Y137466D01*
X662208Y136897D01*
X663072Y136539D01*
X664000Y136417D01*
X664927Y136539D01*
X665792Y136897D01*
X666534Y137466D01*
X667103Y138208D01*
X667461Y139073D01*
X667583Y140000D01*
X667461Y140927D01*
X667103Y141792D01*
X666534Y142534D01*
X665792Y143103D01*
X664927Y143461D01*
X664000Y143583D01*
D02*
G37*
G36*
X564000D02*
X563072Y143461D01*
X562208Y143103D01*
X561466Y142534D01*
X560897Y141792D01*
X560539Y140927D01*
X560417Y140000D01*
X560539Y139073D01*
X560897Y138208D01*
X561466Y137466D01*
X562208Y136897D01*
X563072Y136539D01*
X564000Y136417D01*
X564927Y136539D01*
X565792Y136897D01*
X566534Y137466D01*
X567103Y138208D01*
X567461Y139073D01*
X567583Y140000D01*
X567461Y140927D01*
X567103Y141792D01*
X566534Y142534D01*
X565792Y143103D01*
X564927Y143461D01*
X564000Y143583D01*
D02*
G37*
G36*
X667553Y133553D02*
X660447D01*
Y126447D01*
X667553D01*
Y133553D01*
D02*
G37*
G36*
X583553D02*
X576447D01*
Y126447D01*
X583553D01*
Y133553D01*
D02*
G37*
G36*
X650000Y133583D02*
X649073Y133461D01*
X648208Y133103D01*
X647466Y132534D01*
X646897Y131792D01*
X646539Y130927D01*
X646417Y130000D01*
X646539Y129073D01*
X646897Y128208D01*
X647466Y127466D01*
X648208Y126897D01*
X649073Y126539D01*
X650000Y126417D01*
X650927Y126539D01*
X651792Y126897D01*
X652534Y127466D01*
X653103Y128208D01*
X653461Y129073D01*
X653583Y130000D01*
X653461Y130927D01*
X653103Y131792D01*
X652534Y132534D01*
X651792Y133103D01*
X650927Y133461D01*
X650000Y133583D01*
D02*
G37*
G36*
X640000D02*
X639073Y133461D01*
X638208Y133103D01*
X637466Y132534D01*
X636897Y131792D01*
X636539Y130927D01*
X636417Y130000D01*
X636539Y129073D01*
X636897Y128208D01*
X637466Y127466D01*
X638208Y126897D01*
X639073Y126539D01*
X640000Y126417D01*
X640928Y126539D01*
X641792Y126897D01*
X642534Y127466D01*
X643103Y128208D01*
X643461Y129073D01*
X643583Y130000D01*
X643461Y130927D01*
X643103Y131792D01*
X642534Y132534D01*
X641792Y133103D01*
X640928Y133461D01*
X640000Y133583D01*
D02*
G37*
G36*
X630000D02*
X629073Y133461D01*
X628208Y133103D01*
X627466Y132534D01*
X626897Y131792D01*
X626539Y130927D01*
X626417Y130000D01*
X626539Y129073D01*
X626897Y128208D01*
X627466Y127466D01*
X628208Y126897D01*
X629073Y126539D01*
X630000Y126417D01*
X630928Y126539D01*
X631792Y126897D01*
X632534Y127466D01*
X633103Y128208D01*
X633461Y129073D01*
X633583Y130000D01*
X633461Y130927D01*
X633103Y131792D01*
X632534Y132534D01*
X631792Y133103D01*
X630928Y133461D01*
X630000Y133583D01*
D02*
G37*
G36*
X620000D02*
X619072Y133461D01*
X618208Y133103D01*
X617466Y132534D01*
X616897Y131792D01*
X616539Y130927D01*
X616417Y130000D01*
X616539Y129073D01*
X616897Y128208D01*
X617466Y127466D01*
X618208Y126897D01*
X619072Y126539D01*
X620000Y126417D01*
X620927Y126539D01*
X621792Y126897D01*
X622534Y127466D01*
X623103Y128208D01*
X623461Y129073D01*
X623583Y130000D01*
X623461Y130927D01*
X623103Y131792D01*
X622534Y132534D01*
X621792Y133103D01*
X620927Y133461D01*
X620000Y133583D01*
D02*
G37*
G36*
X610000D02*
X609072Y133461D01*
X608208Y133103D01*
X607466Y132534D01*
X606897Y131792D01*
X606539Y130927D01*
X606417Y130000D01*
X606539Y129073D01*
X606897Y128208D01*
X607466Y127466D01*
X608208Y126897D01*
X609072Y126539D01*
X610000Y126417D01*
X610927Y126539D01*
X611792Y126897D01*
X612534Y127466D01*
X613103Y128208D01*
X613461Y129073D01*
X613583Y130000D01*
X613461Y130927D01*
X613103Y131792D01*
X612534Y132534D01*
X611792Y133103D01*
X610927Y133461D01*
X610000Y133583D01*
D02*
G37*
G36*
X600000D02*
X599073Y133461D01*
X598208Y133103D01*
X597466Y132534D01*
X596897Y131792D01*
X596539Y130927D01*
X596417Y130000D01*
X596539Y129073D01*
X596897Y128208D01*
X597466Y127466D01*
X598208Y126897D01*
X599073Y126539D01*
X600000Y126417D01*
X600927Y126539D01*
X601792Y126897D01*
X602534Y127466D01*
X603103Y128208D01*
X603461Y129073D01*
X603583Y130000D01*
X603461Y130927D01*
X603103Y131792D01*
X602534Y132534D01*
X601792Y133103D01*
X600927Y133461D01*
X600000Y133583D01*
D02*
G37*
G36*
X590000D02*
X589073Y133461D01*
X588208Y133103D01*
X587466Y132534D01*
X586897Y131792D01*
X586539Y130927D01*
X586417Y130000D01*
X586539Y129073D01*
X586897Y128208D01*
X587466Y127466D01*
X588208Y126897D01*
X589073Y126539D01*
X590000Y126417D01*
X590928Y126539D01*
X591792Y126897D01*
X592534Y127466D01*
X593103Y128208D01*
X593461Y129073D01*
X593583Y130000D01*
X593461Y130927D01*
X593103Y131792D01*
X592534Y132534D01*
X591792Y133103D01*
X590928Y133461D01*
X590000Y133583D01*
D02*
G37*
G36*
X564000D02*
X563072Y133461D01*
X562208Y133103D01*
X561466Y132534D01*
X560897Y131792D01*
X560539Y130927D01*
X560417Y130000D01*
X560539Y129073D01*
X560897Y128208D01*
X561466Y127466D01*
X562208Y126897D01*
X563072Y126539D01*
X564000Y126417D01*
X564927Y126539D01*
X565792Y126897D01*
X566534Y127466D01*
X567103Y128208D01*
X567461Y129073D01*
X567583Y130000D01*
X567461Y130927D01*
X567103Y131792D01*
X566534Y132534D01*
X565792Y133103D01*
X564927Y133461D01*
X564000Y133583D01*
D02*
G37*
%LPD*%
D30*
X611412Y174912D02*
X638500Y202000D01*
Y222000D01*
X648500D02*
Y226500D01*
X646500Y228500D02*
X648500Y226500D01*
X634379Y228500D02*
X646500D01*
X633500Y213000D02*
Y227621D01*
X634379Y228500D01*
X614000Y193500D02*
X633500Y213000D01*
X606500Y173000D02*
X630500Y149000D01*
X608500Y220919D02*
Y222000D01*
X606500Y218919D02*
X608500Y220919D01*
X606500Y173000D02*
Y218919D01*
X630500Y149000D02*
X634000D01*
X628000Y143500D02*
X634000D01*
X598500Y173000D02*
Y222000D01*
Y173000D02*
X628000Y143500D01*
D31*
X580000Y130000D02*
D03*
X648500Y222000D02*
D03*
D32*
X590000Y130000D02*
D03*
X600000D02*
D03*
X610000D02*
D03*
X620000D02*
D03*
X630000D02*
D03*
X640000D02*
D03*
X650000D02*
D03*
X564000Y190000D02*
D03*
Y180000D02*
D03*
Y170000D02*
D03*
Y160000D02*
D03*
Y150000D02*
D03*
Y140000D02*
D03*
Y130000D02*
D03*
X664000Y140000D02*
D03*
Y150000D02*
D03*
Y160000D02*
D03*
Y170000D02*
D03*
Y180000D02*
D03*
Y190000D02*
D03*
Y200000D02*
D03*
X638500Y222000D02*
D03*
X628500D02*
D03*
X618500D02*
D03*
X608500D02*
D03*
X598500D02*
D03*
X588500D02*
D03*
X578500D02*
D03*
D33*
X564000Y200000D02*
D03*
X664000Y130000D02*
D03*
D34*
X623500Y195000D02*
D03*
X614000Y193500D02*
D03*
X614500Y188500D02*
D03*
X611412Y174912D02*
D03*
X634000Y149000D02*
D03*
Y143500D02*
D03*
D35*
X664000Y245500D02*
D03*
Y255000D02*
D03*
Y265000D02*
D03*
Y275000D02*
D03*
X625000Y245500D02*
D03*
Y255000D02*
D03*
Y265000D02*
D03*
Y275000D02*
D03*
X635000D02*
D03*
Y265000D02*
D03*
Y255000D02*
D03*
Y245500D02*
D03*
X645500Y275000D02*
D03*
Y265000D02*
D03*
Y255000D02*
D03*
Y245500D02*
D03*
X604500D02*
D03*
Y255000D02*
D03*
Y265000D02*
D03*
Y275000D02*
D03*
X614500D02*
D03*
Y265000D02*
D03*
Y255000D02*
D03*
Y245500D02*
D03*
X594000D02*
D03*
Y255000D02*
D03*
Y265000D02*
D03*
Y275000D02*
D03*
X584000D02*
D03*
Y265000D02*
D03*
Y255000D02*
D03*
Y245500D02*
D03*
X567000D02*
D03*
Y255000D02*
D03*
Y265000D02*
D03*
Y275000D02*
D03*
M02*
