M48
;Layer_Color=9474304
;FILE_FORMAT=2:5
INCH,LZ
;TYPE=PLATED
T1F00S00C0.01000
T2F00S00C0.03500
T3F00S00C0.03543
%
T01
X0634Y01435
Y0149
X0611412Y0174912
X06145Y01885
X0614Y01935
X06235Y0195
T02
X0625Y02455
Y0255
Y0265
Y0275
X0635
Y0265
Y0255
Y02455
X06455
Y0255
Y0265
Y0275
X0664
Y0265
Y0255
Y02455
X06145
Y0255
X06045
Y02455
X0594
Y0255
Y0265
Y0275
X0584
Y0265
Y0255
Y02455
X0567
Y0255
Y0265
Y0275
X06045
Y0265
X06145
Y0275
T03
X0564Y013
Y014
Y015
X058Y013
X059
X06
X061
X062
X063
X064
X065
X0664
Y014
Y015
Y016
Y017
Y018
Y019
Y02
X06485Y0222
X06385
X06285
X06185
X06085
X05985
X05885
X05785
X0564Y02
Y019
Y018
Y017
Y016
M30
