G04*
G04 #@! TF.GenerationSoftware,Altium Limited,Altium Designer,20.1.11 (218)*
G04*
G04 Layer_Color=16711935*
%FSLAX25Y25*%
%MOIN*%
G70*
G04*
G04 #@! TF.SameCoordinates,36FDBAD9-5122-4A0A-A9A9-D65628025C9C*
G04*
G04*
G04 #@! TF.FilePolarity,Negative*
G04*
G01*
G75*
%ADD25R,0.06706X0.06706*%
%ADD26C,0.06706*%
%ADD27R,0.06706X0.06706*%
%ADD28C,0.02800*%
%ADD29C,0.06800*%
D25*
X580000Y130000D02*
D03*
X648500Y222000D02*
D03*
D26*
X590000Y130000D02*
D03*
X600000D02*
D03*
X610000D02*
D03*
X620000D02*
D03*
X630000D02*
D03*
X640000D02*
D03*
X650000D02*
D03*
X564000Y190000D02*
D03*
Y180000D02*
D03*
Y170000D02*
D03*
Y160000D02*
D03*
Y150000D02*
D03*
Y140000D02*
D03*
Y130000D02*
D03*
X664000Y140000D02*
D03*
Y150000D02*
D03*
Y160000D02*
D03*
Y170000D02*
D03*
Y180000D02*
D03*
Y190000D02*
D03*
Y200000D02*
D03*
X638500Y222000D02*
D03*
X628500D02*
D03*
X618500D02*
D03*
X608500D02*
D03*
X598500D02*
D03*
X588500D02*
D03*
X578500D02*
D03*
D27*
X564000Y200000D02*
D03*
X664000Y130000D02*
D03*
D28*
X623500Y195000D02*
D03*
X614000Y193500D02*
D03*
X614500Y188500D02*
D03*
X611412Y174912D02*
D03*
X634000Y149000D02*
D03*
Y143500D02*
D03*
D29*
X664000Y245500D02*
D03*
Y255000D02*
D03*
Y265000D02*
D03*
Y275000D02*
D03*
X625000Y245500D02*
D03*
Y255000D02*
D03*
Y265000D02*
D03*
Y275000D02*
D03*
X635000D02*
D03*
Y265000D02*
D03*
Y255000D02*
D03*
Y245500D02*
D03*
X645500Y275000D02*
D03*
Y265000D02*
D03*
Y255000D02*
D03*
Y245500D02*
D03*
X604500D02*
D03*
Y255000D02*
D03*
Y265000D02*
D03*
Y275000D02*
D03*
X614500D02*
D03*
Y265000D02*
D03*
Y255000D02*
D03*
Y245500D02*
D03*
X594000D02*
D03*
Y255000D02*
D03*
Y265000D02*
D03*
Y275000D02*
D03*
X584000D02*
D03*
Y265000D02*
D03*
Y255000D02*
D03*
Y245500D02*
D03*
X567000D02*
D03*
Y255000D02*
D03*
Y265000D02*
D03*
Y275000D02*
D03*
M02*
