G04*
G04 #@! TF.GenerationSoftware,Altium Limited,Altium Designer,20.1.11 (218)*
G04*
G04 Layer_Color=8421504*
%FSLAX25Y25*%
%MOIN*%
G70*
G04*
G04 #@! TF.SameCoordinates,36FDBAD9-5122-4A0A-A9A9-D65628025C9C*
G04*
G04*
G04 #@! TF.FilePolarity,Positive*
G04*
G01*
G75*
%ADD15R,0.02362X0.03937*%
%ADD16R,0.02800X0.05100*%
%ADD17R,0.05512X0.04331*%
%ADD18R,0.05100X0.02800*%
%ADD19R,0.05800X0.01100*%
%ADD20R,0.01100X0.05800*%
D15*
X588000Y201224D02*
D03*
X591740Y191776D02*
D03*
X584260D02*
D03*
D16*
X580750Y209500D02*
D03*
X588250D02*
D03*
X590000Y185000D02*
D03*
X597500D02*
D03*
D17*
X608000Y197453D02*
D03*
Y191547D02*
D03*
X600000Y197953D02*
D03*
Y192047D02*
D03*
D18*
X583000Y177500D02*
D03*
Y185000D02*
D03*
X648500Y230750D02*
D03*
Y238250D02*
D03*
X638500Y230750D02*
D03*
Y238250D02*
D03*
X628500Y230500D02*
D03*
Y238000D02*
D03*
X608500Y237750D02*
D03*
Y230250D02*
D03*
D19*
X598000Y154347D02*
D03*
Y156315D02*
D03*
Y158283D02*
D03*
Y160252D02*
D03*
Y162221D02*
D03*
Y164189D02*
D03*
Y166157D02*
D03*
Y168126D02*
D03*
Y170095D02*
D03*
Y172063D02*
D03*
Y174031D02*
D03*
Y176000D02*
D03*
X631200D02*
D03*
Y174031D02*
D03*
Y172063D02*
D03*
Y170095D02*
D03*
Y168126D02*
D03*
Y166157D02*
D03*
Y164189D02*
D03*
Y162221D02*
D03*
Y160252D02*
D03*
Y158283D02*
D03*
Y156315D02*
D03*
Y154347D02*
D03*
D20*
X603773Y181773D02*
D03*
X605742D02*
D03*
X607710D02*
D03*
X609679D02*
D03*
X611647D02*
D03*
X613616D02*
D03*
X615584D02*
D03*
X617553D02*
D03*
X619521D02*
D03*
X621490D02*
D03*
X623458D02*
D03*
X625427D02*
D03*
Y148573D02*
D03*
X623458D02*
D03*
X621490D02*
D03*
X619521D02*
D03*
X617553D02*
D03*
X615584D02*
D03*
X613616D02*
D03*
X611647D02*
D03*
X609679D02*
D03*
X607710D02*
D03*
X605742D02*
D03*
X603773D02*
D03*
M02*
