G04*
G04 #@! TF.GenerationSoftware,Altium Limited,Altium Designer,20.1.11 (218)*
G04*
G04 Layer_Color=8388736*
%FSLAX25Y25*%
%MOIN*%
G70*
G04*
G04 #@! TF.SameCoordinates,36FDBAD9-5122-4A0A-A9A9-D65628025C9C*
G04*
G04*
G04 #@! TF.FilePolarity,Negative*
G04*
G01*
G75*
%ADD19R,0.05800X0.01100*%
%ADD20R,0.01100X0.05800*%
%ADD21R,0.03162X0.04737*%
%ADD22R,0.03600X0.05900*%
%ADD23R,0.06312X0.05131*%
%ADD24R,0.05900X0.03600*%
%ADD25R,0.06706X0.06706*%
%ADD26C,0.06706*%
%ADD27R,0.06706X0.06706*%
%ADD28C,0.02800*%
%ADD29C,0.06800*%
D19*
X598000Y154347D02*
D03*
Y156315D02*
D03*
Y158283D02*
D03*
Y160252D02*
D03*
Y162221D02*
D03*
Y164189D02*
D03*
Y166157D02*
D03*
Y168126D02*
D03*
Y170095D02*
D03*
Y172063D02*
D03*
Y174031D02*
D03*
Y176000D02*
D03*
X631200D02*
D03*
Y174031D02*
D03*
Y172063D02*
D03*
Y170095D02*
D03*
Y168126D02*
D03*
Y166157D02*
D03*
Y164189D02*
D03*
Y162221D02*
D03*
Y160252D02*
D03*
Y158283D02*
D03*
Y156315D02*
D03*
Y154347D02*
D03*
D20*
X603773Y181773D02*
D03*
X605742D02*
D03*
X607710D02*
D03*
X609679D02*
D03*
X611647D02*
D03*
X613616D02*
D03*
X615584D02*
D03*
X617553D02*
D03*
X619521D02*
D03*
X621490D02*
D03*
X623458D02*
D03*
X625427D02*
D03*
Y148573D02*
D03*
X623458D02*
D03*
X621490D02*
D03*
X619521D02*
D03*
X617553D02*
D03*
X615584D02*
D03*
X613616D02*
D03*
X611647D02*
D03*
X609679D02*
D03*
X607710D02*
D03*
X605742D02*
D03*
X603773D02*
D03*
D21*
X588000Y201224D02*
D03*
X591740Y191776D02*
D03*
X584260D02*
D03*
D22*
X580750Y209500D02*
D03*
X588250D02*
D03*
X590000Y185000D02*
D03*
X597500D02*
D03*
D23*
X608000Y197453D02*
D03*
Y191547D02*
D03*
X600000Y197953D02*
D03*
Y192047D02*
D03*
D24*
X583000Y177500D02*
D03*
Y185000D02*
D03*
X648500Y230750D02*
D03*
Y238250D02*
D03*
X638500Y230750D02*
D03*
Y238250D02*
D03*
X628500Y230500D02*
D03*
Y238000D02*
D03*
X608500Y237750D02*
D03*
Y230250D02*
D03*
D25*
X580000Y130000D02*
D03*
X648500Y222000D02*
D03*
D26*
X590000Y130000D02*
D03*
X600000D02*
D03*
X610000D02*
D03*
X620000D02*
D03*
X630000D02*
D03*
X640000D02*
D03*
X650000D02*
D03*
X564000Y190000D02*
D03*
Y180000D02*
D03*
Y170000D02*
D03*
Y160000D02*
D03*
Y150000D02*
D03*
Y140000D02*
D03*
Y130000D02*
D03*
X664000Y140000D02*
D03*
Y150000D02*
D03*
Y160000D02*
D03*
Y170000D02*
D03*
Y180000D02*
D03*
Y190000D02*
D03*
Y200000D02*
D03*
X638500Y222000D02*
D03*
X628500D02*
D03*
X618500D02*
D03*
X608500D02*
D03*
X598500D02*
D03*
X588500D02*
D03*
X578500D02*
D03*
D27*
X564000Y200000D02*
D03*
X664000Y130000D02*
D03*
D28*
X623500Y195000D02*
D03*
X614000Y193500D02*
D03*
X614500Y188500D02*
D03*
X611412Y174912D02*
D03*
X634000Y149000D02*
D03*
Y143500D02*
D03*
D29*
X664000Y245500D02*
D03*
Y255000D02*
D03*
Y265000D02*
D03*
Y275000D02*
D03*
X625000Y245500D02*
D03*
Y255000D02*
D03*
Y265000D02*
D03*
Y275000D02*
D03*
X635000D02*
D03*
Y265000D02*
D03*
Y255000D02*
D03*
Y245500D02*
D03*
X645500Y275000D02*
D03*
Y265000D02*
D03*
Y255000D02*
D03*
Y245500D02*
D03*
X604500D02*
D03*
Y255000D02*
D03*
Y265000D02*
D03*
Y275000D02*
D03*
X614500D02*
D03*
Y265000D02*
D03*
Y255000D02*
D03*
Y245500D02*
D03*
X594000D02*
D03*
Y255000D02*
D03*
Y265000D02*
D03*
Y275000D02*
D03*
X584000D02*
D03*
Y265000D02*
D03*
Y255000D02*
D03*
Y245500D02*
D03*
X567000D02*
D03*
Y255000D02*
D03*
Y265000D02*
D03*
Y275000D02*
D03*
M02*
